<?xml version="1.0" standalone="no"?>
<!DOCTYPE svg PUBLIC "-//W3C//DTD SVG 20010904//EN"
 "http://www.w3.org/TR/2001/REC-SVG-20010904/DTD/svg10.dtd">
<svg version="1.0" xmlns="http://www.w3.org/2000/svg"
 width="700.000000pt" height="700.000000pt" viewBox="0 0 700.000000 700.000000"
 preserveAspectRatio="xMidYMid meet">
<metadata>
Created by potrace 1.11, written by Peter Selinger 2001-2013
</metadata>
<g transform="translate(0.000000,700.000000) scale(0.100000,-0.100000)"
fill="#000000" stroke="none">
<path d="M645 5188 c-52 -13 -111 -71 -125 -123 -13 -47 -6 -154 15 -213 2 -7
7 -34 11 -60 3 -26 8 -50 10 -53 2 -4 22 -101 45 -215 22 -115 42 -216 44
-224 2 -8 20 -98 40 -200 21 -102 45 -225 55 -275 10 -49 21 -102 24 -117 2
-15 12 -63 20 -105 9 -43 18 -89 21 -103 3 -14 12 -59 20 -100 8 -41 17 -86
20 -100 3 -14 12 -59 20 -100 8 -41 17 -85 20 -98 2 -13 20 -104 40 -202 20
-98 37 -187 39 -197 2 -10 18 -88 35 -173 17 -85 33 -166 36 -180 2 -14 14
-69 25 -123 11 -54 22 -110 25 -125 5 -28 17 -87 54 -272 25 -122 42 -154 100
-195 l43 -30 2208 0 2208 0 43 30 c24 17 52 45 62 63 15 26 74 281 112 482 3
14 7 34 9 45 12 57 38 183 42 200 4 20 21 103 28 140 3 11 37 175 76 365 39
190 73 354 75 365 5 23 43 210 49 240 2 11 14 67 26 125 12 58 24 114 26 125
3 18 29 141 105 510 16 77 32 151 34 165 6 31 4 21 60 294 54 263 55 305 8
364 -59 75 -152 97 -239 56 -61 -29 -85 -72 -116 -212 -15 -70 -31 -143 -34
-162 -3 -19 -9 -51 -14 -70 -5 -19 -11 -48 -14 -64 -3 -16 -11 -55 -17 -85 -6
-31 -13 -63 -14 -71 -2 -8 -4 -16 -4 -18 -4 -12 -114 62 -191 129 -167 144
-291 211 -440 235 -152 25 -357 -9 -485 -81 -55 -31 -167 -112 -185 -135 -17
-21 -137 -113 -168 -129 -73 -37 -164 -45 -255 -24 -70 16 -111 41 -224 139
-142 122 -218 169 -330 204 -165 51 -365 43 -515 -19 -69 -30 -187 -103 -229
-144 -55 -54 -161 -138 -197 -156 -94 -48 -230 -48 -330 1 -23 12 -82 55 -130
96 -163 140 -220 177 -350 223 -177 62 -450 33 -608 -65 -38 -23 -142 -105
-239 -186 -69 -59 -114 -85 -125 -73 -4 4 -31 125 -59 268 -28 143 -59 279
-67 302 -32 87 -133 137 -229 111z m1245 -735 c46 -21 86 -50 170 -125 197
-176 356 -240 584 -233 106 3 156 12 246 47 93 36 150 74 279 182 164 139 187
150 321 151 95 0 110 -3 160 -27 30 -15 96 -63 146 -106 166 -143 250 -193
379 -227 73 -20 239 -27 320 -14 134 21 283 95 391 194 46 41 123 105 157 128
122 83 326 72 438 -24 13 -11 51 -44 83 -72 33 -29 69 -59 80 -67 12 -8 27
-20 34 -27 22 -21 134 -80 189 -99 59 -21 57 -15 33 -134 -6 -30 -14 -66 -16
-80 -3 -14 -10 -45 -15 -70 -6 -25 -12 -54 -14 -65 -2 -11 -7 -32 -10 -47 -3
-16 -7 -40 -10 -55 -3 -16 -8 -35 -10 -43 -2 -8 -7 -28 -10 -45 -2 -16 -7 -39
-9 -50 -3 -11 -32 -153 -65 -315 -33 -162 -79 -383 -101 -490 -43 -204 -115
-554 -125 -605 -3 -16 -11 -57 -18 -89 l-12 -59 -1989 0 c-1704 0 -1989 2
-1996 14 -4 8 -11 32 -15 54 -5 22 -9 45 -10 50 -2 6 -8 37 -15 70 -6 33 -13
69 -15 80 -3 11 -14 65 -24 120 -11 55 -23 111 -25 125 -8 36 -26 122 -30 145
-7 36 -45 227 -66 330 -11 55 -22 112 -25 126 -5 29 -34 173 -40 204 -13 60
-78 381 -90 445 -18 96 -23 119 -41 205 -8 38 -17 86 -20 105 -3 19 -7 40 -9
46 -1 6 13 16 33 23 82 29 237 122 277 166 18 20 139 121 166 137 82 51 250
62 339 21z"/>
</g>
</svg>
